<svg id="Layer_1" data-name="Layer 1" xmlns="http://www.w3.org/2000/svg" width="143.34mm" height="143.36mm" viewBox="0 0 406.31 406.36"><path d="M192.83,4.89h23.51a20.18,20.18,0,0,0,3,.64A197.24,197.24,0,0,1,270.22,15.9c76.92,25.92,131.93,99.68,134.86,180.88,1.32,36.39-5.65,71.12-23.43,102.94C344.83,365.57,288.33,401.23,213,405.88c-36.19,2.24-70.72-5.72-102.56-23.21Q25.5,336,7.09,240.48C5.63,232.83,5,225,3.93,217.3V193.79a26.58,26.58,0,0,0,.67-3.38c2-28.13,9.39-54.79,23-79.4C59,54.55,106.44,20,170,8,177.55,6.58,185.22,5.91,192.83,4.89ZM30.65,205.26c-.34,95.6,77.86,174,173.75,174.23C299.92,379.71,378,302,378.53,206c.55-95.5-77.54-174-173.56-174.42C109.43,31.16,31,109.31,30.65,205.26Z" transform="translate(-1.43 -2.39)" fill="#00e266" stroke="#00e266" stroke-miterlimit="10" stroke-width="5"/><path d="M172.77,251.73c1.62-2,2.44-3.19,3.45-4.2q57-57.09,114.09-114.16c4.16-4.16,8.72-6.62,14.73-4.84a13.2,13.2,0,0,1,6.85,20.81,39.18,39.18,0,0,1-3.45,3.73Q246.54,215,184.61,276.9c-8.5,8.5-15.15,8.47-23.74-.12q-30.48-30.46-60.88-61a20.38,20.38,0,0,1-5-8.14c-1.63-5.6,1.07-11.18,5.91-14.14a13.07,13.07,0,0,1,15.65,1.31c1.1.91,2.1,2,3.11,3q24.94,24.93,49.85,49.88C170.51,248.67,171.3,249.89,172.77,251.73Z" transform="translate(-1.43 -2.39)" fill="#00e266" stroke="#00e266" stroke-miterlimit="10" stroke-width="5"/></svg>