<svg id="Layer_1" data-name="Layer 1" xmlns="http://www.w3.org/2000/svg" width="89.63" height="32.43" viewBox="0 0 89.63 32.43"><path d="M17,4.86V9.22H6.63a2.51,2.51,0,0,0-1.5.81,2.28,2.28,0,0,0-.59,1.57,2.35,2.35,0,0,0,.61,1.62A2.2,2.2,0,0,0,6.7,14H17v4.43H6.88a2.41,2.41,0,0,0-1.66.72,2.26,2.26,0,0,0-.68,1.66v6.74H0V20.79a6.55,6.55,0,0,1,.48-2.51A7.15,7.15,0,0,1,1.8,16.21,7.15,7.15,0,0,1,.48,14.14,6.7,6.7,0,0,1,0,11.6,6.47,6.47,0,0,1,.52,9,6.85,6.85,0,0,1,2,6.86,7.09,7.09,0,0,1,4.09,5.4,6.33,6.33,0,0,1,6.7,4.86Z" transform="translate(0 0.01)" fill="#fff"/><path d="M67.54,16.19a7.17,7.17,0,0,1,1.31,2.08,6.91,6.91,0,0,1,.53,2.5,7.14,7.14,0,0,1-1.84,4.58h0a7.67,7.67,0,0,1-2.18,1.57,6.27,6.27,0,0,1-2.73.59H52.33V23.18H62.71a2.39,2.39,0,0,0,1.57-.81,2.24,2.24,0,0,0,.6-1.56h0a2.22,2.22,0,0,0-.6-1.57,2.61,2.61,0,0,0-1.44-.81H57.58a6.1,6.1,0,0,1-2.72-.6,7.19,7.19,0,0,1-2.18-1.56h0a7.15,7.15,0,0,1-1.32-2.07,6.47,6.47,0,0,1-.48-2.5,6.55,6.55,0,0,1,.48-2.51,7.15,7.15,0,0,1,1.32-2.07h0a7.2,7.2,0,0,1,2.16-1.59,6.1,6.1,0,0,1,2.72-.6h10.3V9.29H57.49a2.51,2.51,0,0,0-1.5.81,2.28,2.28,0,0,0-.59,1.57h0A2.23,2.23,0,0,0,56,13.21a2.62,2.62,0,0,0,1.41.83h5.29a6.44,6.44,0,0,1,2.73.58,7.16,7.16,0,0,1,2.18,1.55A.07.07,0,0,1,67.54,16.19Z" transform="translate(0 0.01)" fill="#fff"/><path d="M87.79,16.19a7.17,7.17,0,0,1,1.31,2.08,6.91,6.91,0,0,1,.53,2.5,7.14,7.14,0,0,1-1.84,4.58h0a7.53,7.53,0,0,1-2.18,1.57,6.23,6.23,0,0,1-2.72.59H72.59V23.18H83a2.41,2.41,0,0,0,1.49-.81,2.24,2.24,0,0,0,.6-1.56h0a2.21,2.21,0,0,0-.58-1.53A2.64,2.64,0,0,0,83,18.47H77.78a6.1,6.1,0,0,1-2.72-.6,7.19,7.19,0,0,1-2.18-1.56h0a7,7,0,0,1-1.32-2.07,6.47,6.47,0,0,1-.48-2.5,6.55,6.55,0,0,1,.48-2.51,7,7,0,0,1,1.32-2.07h0a7.37,7.37,0,0,1,2.21-1.63,6.1,6.1,0,0,1,2.72-.6h10.3V9.29H77.74a2.51,2.51,0,0,0-1.5.81,2.28,2.28,0,0,0-.59,1.57h0a2.23,2.23,0,0,0,.57,1.54,2.5,2.5,0,0,0,1.41.83h5.29a6.37,6.37,0,0,1,2.72.58,7,7,0,0,1,2.18,1.55Z" transform="translate(0 0.01)" fill="#fff"/><rect y="11.65" width="4.45" height="11.02" fill="#fff"/><path d="M25.49,11.76l3.19-4.08a1,1,0,0,0,.25-.76,1.26,1.26,0,0,0-.42-1,1.48,1.48,0,0,0-1-.37,1.12,1.12,0,0,0-.9.42L23.38,10.1a5.17,5.17,0,0,0-1.22,3.25V19.1a5.09,5.09,0,0,0,1.22,3.27l3.24,4.16a1.09,1.09,0,0,0,.92.42,1.41,1.41,0,0,0,1-.37,1.31,1.31,0,0,0,.42-1,1.17,1.17,0,0,0-.23-.77L25.54,20.7a2.77,2.77,0,0,1-.65-1.83V13.63A3,3,0,0,1,25.49,11.76Z" transform="translate(0 0.01)" fill="#fff"/><path d="M46.37,10.08,43.09,6a1.08,1.08,0,0,0-.9-.42,1.39,1.39,0,0,0-1,.39,1.31,1.31,0,0,0-.42,1,1.19,1.19,0,0,0,.23.75l3.28,4.09a2.93,2.93,0,0,1,.65,1.84v5.21a2.82,2.82,0,0,1-.65,1.84l-3.21,4.07a1.23,1.23,0,0,0-.23.77,1.31,1.31,0,0,0,.42,1,1.33,1.33,0,0,0,1,.39,1.11,1.11,0,0,0,.91-.42l3.28-4.13a5.08,5.08,0,0,0,1.19-3.27V13.33A5.12,5.12,0,0,0,46.37,10.08Z" transform="translate(0 0.01)" fill="#fff"/><rect x="18.47" y="14.98" width="32.86" height="2.45" rx="0.49" transform="translate(11.55 46.8) rotate(-77.55)" fill="#fff"/></svg>