<svg id="Layer_1" data-name="Layer 1" xmlns="http://www.w3.org/2000/svg" width="54.03" height="54.05" viewBox="0 0 54.03 54.05"><path d="M19.92,47.76A66.58,66.58,0,0,1,21.18,41c3.54-12.24,15.26-20.09,28.33-19.1a27,27,0,0,1,1,53.67c-.83.11-1.66.2-2.49.3H45.84a9.53,9.53,0,0,0-1-.2A26.74,26.74,0,0,1,21.23,56.72a64.27,64.27,0,0,1-1.31-6.8ZM47,22.75A26,26,0,1,0,73,49.24,26.09,26.09,0,0,0,47,22.75Z" transform="translate(-19.92 -21.79)" fill="#fff"/><path d="M59.5,42.66l-.19-.08L47.08,36.87a.14.14,0,0,0-.14,0L34.62,42.63l-.09,0V41.58c0-.06,0-.08.07-.11l6.65-3.06,5.69-2.63a.14.14,0,0,1,.14,0l10.15,4.68,2.23,1h0Z" transform="translate(-19.92 -21.79)" fill="#fff"/><path d="M59.09,47.09l-1.88-.86v6.9H55.87V45.7a.13.13,0,0,0-.08-.14l-8.08-3.72-.07,0V46.6H46.29V41.85l-.48.23-7.46,3.43a.13.13,0,0,0-.08.14v2.6H36.92V46.17l-2,.92V43c0-.07,0-.1.07-.12l11.93-5.57a.17.17,0,0,1,.17,0L59,42.89a.1.1,0,0,1,.07.11v4.09Z" transform="translate(-19.92 -21.79)" fill="#fff"/><path d="M44.51,59.39V53.91h4.15v1H45.78v1.19h2.54v1H45.78v1.27h3v1Z" transform="translate(-19.92 -21.79)" fill="#fff"/><path d="M43.43,54.76l-.79.74a5.66,5.66,0,0,0-.53-.37,1.94,1.94,0,0,0-2.18.22,1.61,1.61,0,0,0-.5.95,1.87,1.87,0,0,0,.18,1.23,1.61,1.61,0,0,0,1,.79,2.08,2.08,0,0,0,1.51-.11.1.1,0,0,0,.07-.11V56.57h1.16v2.15a.16.16,0,0,1-.06.13,3.76,3.76,0,0,1-1.64.61,3.35,3.35,0,0,1-1.6-.14,2.66,2.66,0,0,1-1.86-2.08,2.74,2.74,0,0,1,.75-2.59,2.89,2.89,0,0,1,1.61-.79,3.48,3.48,0,0,1,1.89.19,2.52,2.52,0,0,1,1,.65Z" transform="translate(-19.92 -21.79)" fill="#fff"/><path d="M54.65,54.79l-.82.75a1.75,1.75,0,0,0-1.57-.63,1.61,1.61,0,0,0-1.12.53,1.9,1.9,0,0,0,0,2.45,1.84,1.84,0,0,0,2.69-.13l.81.75a2.34,2.34,0,0,1-.57.52,3,3,0,0,1-1.55.46,3.15,3.15,0,0,1-1.8-.44,2.65,2.65,0,0,1-1.31-2.12,2.72,2.72,0,0,1,.68-2.15,2.77,2.77,0,0,1,1.62-.9,3.33,3.33,0,0,1,2,.22,2.62,2.62,0,0,1,.85.63Z" transform="translate(-19.92 -21.79)" fill="#fff"/><path d="M57.21,59.35H55.87V53.83h1.34Z" transform="translate(-19.92 -21.79)" fill="#fff"/><path d="M38.26,51.89H36.93v-3h1.33Z" transform="translate(-19.92 -21.79)" fill="#fff"/><path d="M54.1,50.38a1.5,1.5,0,0,1,.28.18.72.72,0,0,1-.22,1.19,1.3,1.3,0,0,1-.52.1H52.18V49h1.29a1.35,1.35,0,0,1,.56.1.64.64,0,0,1,.42.56.7.7,0,0,1-.32.67Zm-1.51,1.14h1a1.31,1.31,0,0,0,.38-.06.37.37,0,0,0,.26-.39.4.4,0,0,0-.25-.4.76.76,0,0,0-.26-.06l-1.08,0h0Zm0-1.26h0c.27,0,.54,0,.82,0a1.23,1.23,0,0,0,.38-.08.37.37,0,0,0,.23-.36.35.35,0,0,0-.22-.36,1.07,1.07,0,0,0-.34-.09h-.91Z" transform="translate(-19.92 -21.79)" fill="#fff"/><path d="M42.56,51.5v.35h-2V49h2v.35H40.92v.86h1.41v.34h-1.4v.91Z" transform="translate(-19.92 -21.79)" fill="#fff"/><path d="M45.26,51.5v.35h-2V49h2v.35H43.62v.86H45v.34H43.62v.91Z" transform="translate(-19.92 -21.79)" fill="#fff"/><path d="M48,51.5v.35h-2V49h2v.35H46.32v.86h1.4v.35h-1.4v.9Z" transform="translate(-19.92 -21.79)" fill="#fff"/><path d="M49.57,51.22a1.46,1.46,0,0,0,.71.31,1.38,1.38,0,0,0,.61,0,.4.4,0,0,0,.29-.48.33.33,0,0,0-.21-.22l-.47-.16a4.5,4.5,0,0,1-.49-.14.67.67,0,0,1-.52-.64.72.72,0,0,1,.49-.74,1.72,1.72,0,0,1,1.45.11l0,0-.12.3-.52-.18a1.14,1.14,0,0,0-.58,0,.42.42,0,0,0-.36.35A.29.29,0,0,0,50,50a1.18,1.18,0,0,0,.29.16l.74.2a.91.91,0,0,1,.37.21.71.71,0,0,1-.08,1.06,1.13,1.13,0,0,1-.61.22,1.93,1.93,0,0,1-1.06-.19,1.18,1.18,0,0,1-.18-.13.07.07,0,0,1,0-.06Z" transform="translate(-19.92 -21.79)" fill="#fff"/><path d="M39.29,49h.39v2.81h-.39Z" transform="translate(-19.92 -21.79)" fill="#fff"/></svg>