<svg id="Layer_1" data-name="Layer 1" xmlns="http://www.w3.org/2000/svg" width="35.81" height="34.05" viewBox="0 0 35.81 34.05"><path d="M-27.75,21.61l-.27-.12L-45.56,13.3a.23.23,0,0,0-.2,0l-17.67,8.27h-.13V20.06c0-.09,0-.12.1-.16l9.54-4.39,8.16-3.77a.18.18,0,0,1,.2,0L-31,18.45l3.2,1.44h0Z" transform="translate(63.56 -11.71)" fill="#fff"/><path d="M-28.34,28-31,26.73v9.89H-33V26a.17.17,0,0,0-.11-.2l-11.59-5.34h-.1v6.83H-46.7V20.45l-.68.33-10.7,4.92a.19.19,0,0,0-.12.2v3.73h-1.93v-3L-63,28V22.1c0-.1,0-.15.1-.18l17.11-8a.25.25,0,0,1,.24,0l17.08,8a.14.14,0,0,1,.1.16V28Z" transform="translate(63.56 -11.71)" fill="#fff"/><path d="M-49.25,45.6V37.74h6v1.44h-4.13v1.7h3.65v1.44h-3.65v1.82h4.31v1.43Z" transform="translate(63.56 -11.71)" fill="#fff"/><path d="M-50.8,39-51.93,40c-.24-.19-.5-.36-.76-.53a2.79,2.79,0,0,0-3.13.32,2.26,2.26,0,0,0-.71,1.36,2.72,2.72,0,0,0,.25,1.77,2.37,2.37,0,0,0,1.44,1.13,3,3,0,0,0,2.16-.16.14.14,0,0,0,.1-.16V41.56h1.67v3.08a.25.25,0,0,1-.09.19,5.37,5.37,0,0,1-2.35.87,4.86,4.86,0,0,1-2.3-.2,3.79,3.79,0,0,1-2.66-3,4,4,0,0,1,1.07-3.72,4.14,4.14,0,0,1,2.31-1.13,5,5,0,0,1,2.71.27,3.75,3.75,0,0,1,1.44.94Z" transform="translate(63.56 -11.71)" fill="#fff"/><path d="M-34.71,39l-1.17,1.07a2.5,2.5,0,0,0-2.25-.9,2.3,2.3,0,0,0-1.61.76,2.71,2.71,0,0,0,0,3.51A2.63,2.63,0,0,0-36,43.4l.13-.13,1.16,1.07a3.66,3.66,0,0,1-.82.75,4.33,4.33,0,0,1-2.22.66,4.59,4.59,0,0,1-2.58-.63,3.79,3.79,0,0,1-1.88-3,3.9,3.9,0,0,1,1-3.08,4,4,0,0,1,2.33-1.29A4.8,4.8,0,0,1-36,38a3.83,3.83,0,0,1,1.22.9Z" transform="translate(63.56 -11.71)" fill="#fff"/><path d="M-31,45.55H-33V37.63H-31Z" transform="translate(63.56 -11.71)" fill="#fff"/><path d="M-58.21,34.85h-1.91V30.54h1.91Z" transform="translate(63.56 -11.71)" fill="#fff"/><path d="M-35.49,32.68a2.48,2.48,0,0,1,.4.26,1,1,0,0,1,0,1.46,1,1,0,0,1-.36.25,2.07,2.07,0,0,1-.74.14h-2.1V30.7h1.85a2,2,0,0,1,.81.14.94.94,0,0,1,.6.81,1,1,0,0,1-.46,1Zm-2.17,1.64h1.43a2.53,2.53,0,0,0,.55-.09.52.52,0,0,0,.37-.56.55.55,0,0,0-.36-.57A1.12,1.12,0,0,0-36,33h-1.55Zm0-1.81h1.18a1.69,1.69,0,0,0,.54-.12.52.52,0,0,0,.33-.51.51.51,0,0,0-.31-.52,1.69,1.69,0,0,0-.49-.13h-1.31Z" transform="translate(63.56 -11.71)" fill="#fff"/><path d="M-52,34.29v.5h-2.86V30.7H-52v.5H-54.4v1.24h2v.48h-2v1.31Z" transform="translate(63.56 -11.71)" fill="#fff"/><path d="M-48.17,34.29v.5H-51V30.7h2.87v.5h-2.35v1.24h2v.48h-2v1.31Z" transform="translate(63.56 -11.71)" fill="#fff"/><path d="M-44.24,34.29v.5h-2.87V30.7h2.87v.5h-2.41v1.24h2v.5h-2v1.29Z" transform="translate(63.56 -11.71)" fill="#fff"/><path d="M-42,33.89a2.08,2.08,0,0,0,1,.44,1.83,1.83,0,0,0,.87,0,.57.57,0,0,0,.42-.69.49.49,0,0,0-.3-.31l-.68-.23c-.24-.06-.47-.12-.7-.2a1,1,0,0,1-.75-.92,1,1,0,0,1,.71-1.06,2.49,2.49,0,0,1,2.08.15h0l-.18.43-.74-.25a1.47,1.47,0,0,0-.83,0,.59.59,0,0,0-.52.5.43.43,0,0,0,.22.39,1.47,1.47,0,0,0,.41.22l1.06.29a1.33,1.33,0,0,1,.53.3,1,1,0,0,1,0,1.44l-.09.08a1.66,1.66,0,0,1-.88.32,2.85,2.85,0,0,1-1.52-.27l-.25-.19a.08.08,0,0,1,0-.09Z" transform="translate(63.56 -11.71)" fill="#fff"/><path d="M-56.74,30.7h.56v4h-.56Z" transform="translate(63.56 -11.71)" fill="#fff"/></svg>