<svg id="Layer_1" data-name="Layer 1" xmlns="http://www.w3.org/2000/svg" width="35.81" height="34.05" viewBox="0 0 35.81 34.05"><path d="M35.81,9.9l-.27-.12L18,1.59a.23.23,0,0,0-.2,0L.13,9.86H0V8.35c0-.09,0-.12.1-.16L9.64,3.8,17.8,0A.18.18,0,0,1,18,0L32.56,6.74l3.2,1.44h0Z" transform="translate(0 0)"/><path d="M35.22,16.29,32.56,15v9.89h-2V14.29a.17.17,0,0,0-.11-.2L18.86,8.75h-.1v6.83h-1.9V8.74l-.68.33L5.48,14a.19.19,0,0,0-.12.2v3.73H3.43v-3L.56,16.29v-5.9c0-.1,0-.15.1-.18l17.11-8a.26.26,0,0,1,.24,0l17.08,8a.14.14,0,0,1,.1.16v5.92Z" transform="translate(0 0)"/><path d="M14.31,33.89V26h6v1.44H16.18v1.7h3.65v1.44H16.18v1.82h4.31v1.43Z" transform="translate(0 0)"/><path d="M12.76,27.29l-1.13,1c-.24-.19-.5-.36-.76-.53a2.79,2.79,0,0,0-3.13.32A2.26,2.26,0,0,0,7,29.44a2.71,2.71,0,0,0,.25,1.77,2.4,2.4,0,0,0,1.44,1.13,3,3,0,0,0,2.16-.16A.14.14,0,0,0,11,32V29.85h1.67v3.08a.25.25,0,0,1-.09.19,5.37,5.37,0,0,1-2.35.87,4.86,4.86,0,0,1-2.3-.2,3.77,3.77,0,0,1-2.66-3,4,4,0,0,1,1.07-3.72,4.14,4.14,0,0,1,2.31-1.13,5,5,0,0,1,2.71.27,3.75,3.75,0,0,1,1.44.94Z" transform="translate(0 0)"/><path d="M28.85,27.29l-1.17,1.07a2.49,2.49,0,0,0-2.25-.9,2.3,2.3,0,0,0-1.61.76,2.71,2.71,0,0,0,0,3.51,2.63,2.63,0,0,0,3.72,0l0,0,.13-.13,1.16,1.07a3.66,3.66,0,0,1-.82.75,4.27,4.27,0,0,1-2.22.66,4.59,4.59,0,0,1-2.58-.63,3.8,3.8,0,0,1-1.88-3,3.91,3.91,0,0,1,1-3.08A4,4,0,0,1,24.68,26a4.82,4.82,0,0,1,2.88.25,3.87,3.87,0,0,1,1.22.9Z" transform="translate(0 0)"/><path d="M32.56,33.84h-2V25.92h2Z" transform="translate(0 0)"/><path d="M5.35,23.14H3.44V18.83H5.35Z" transform="translate(0 0)"/><path d="M28.07,21a2.11,2.11,0,0,1,.4.26,1,1,0,0,1,.05,1.41l-.05.05a1,1,0,0,1-.36.25,2.11,2.11,0,0,1-.74.14h-2.1V19h1.85a2,2,0,0,1,.81.14,1,1,0,0,1,.6.81,1,1,0,0,1-.46,1ZM25.9,22.61h1.43a2.53,2.53,0,0,0,.55-.09.52.52,0,0,0,.37-.56.55.55,0,0,0-.36-.57,1.26,1.26,0,0,0-.33-.1H26Zm0-1.81h1.18a1.63,1.63,0,0,0,.54-.12.52.52,0,0,0,.33-.51.51.51,0,0,0-.31-.52,1.69,1.69,0,0,0-.49-.13H25.84Z" transform="translate(0 0)"/><path d="M11.56,22.58v.5H8.7V19h2.86v.5H9.16v1.24h2v.48h-2v1.31Z" transform="translate(0 0)"/><path d="M15.39,22.58v.5H12.56V19h2.87v.5H13.08v1.24h2v.48h-2v1.31Z" transform="translate(0 0)"/><path d="M19.32,22.58v.5H16.45V19h2.87v.5H16.91v1.24h2v.5h-2v1.29Z" transform="translate(0 0)"/><path d="M21.56,22.18a2.06,2.06,0,0,0,1,.44,1.83,1.83,0,0,0,.87,0,.57.57,0,0,0,.42-.69h0a.51.51,0,0,0-.3-.31l-.68-.23c-.24-.06-.47-.12-.7-.2a1,1,0,0,1,0-2,2.49,2.49,0,0,1,2.08.15h0l-.18.43-.74-.25a1.47,1.47,0,0,0-.83,0,.58.58,0,0,0-.52.5.43.43,0,0,0,.22.39,1.47,1.47,0,0,0,.41.22l1.06.29a1.33,1.33,0,0,1,.53.3,1,1,0,0,1,0,1.41l0,0-.09.08a1.66,1.66,0,0,1-.88.32,2.85,2.85,0,0,1-1.52-.27l-.25-.19a.08.08,0,0,1,0-.09Z" transform="translate(0 0)"/><path d="M6.82,19h.56v4H6.82Z" transform="translate(0 0)"/></svg>