<svg id="Layer_1" data-name="Layer 1" xmlns="http://www.w3.org/2000/svg" width="38.32" height="16.6" viewBox="0 0 38.32 16.6"><path d="M6.5,6.8V8.5H.5V0H6.4V1.7h-4V3.4H5.8V5H2.4V6.8Z"/><path d="M9.1,8.5,6.9,2.3h2l1.4,4.5,1.4-4.5h1.8L11.3,8.5Z"/><path d="M16.9,8.6a5.9,5.9,0,0,1-1.4-.2,4.13,4.13,0,0,1-1.1-.7,3.59,3.59,0,0,1-.7-1,3.41,3.41,0,0,1,.2-2.8,3.45,3.45,0,0,1,1.2-1.2,3,3,0,0,1,1.8-.4,3.66,3.66,0,0,1,1.8.4,2.54,2.54,0,0,1,1.1,1.2,2.93,2.93,0,0,1,.4,1.6v.6H15.5a1.85,1.85,0,0,0,.2.7,1,1,0,0,0,.5.4.82.82,0,0,0,.7.1,1.88,1.88,0,0,0,.8-.2.9.9,0,0,0,.6-.6l1.6.5a5.5,5.5,0,0,1-.7.9,2.07,2.07,0,0,1-1,.6A2.77,2.77,0,0,1,16.9,8.6ZM15.5,4.8h2.7a1.85,1.85,0,0,0-.2-.7,1,1,0,0,0-.5-.4,1.48,1.48,0,0,0-1.3,0,1,1,0,0,0-.4.5C15.6,4.4,15.6,4.6,15.5,4.8Z"/><path d="M27.2,8.5H25.3V5.1a2.92,2.92,0,0,0-.2-.9.71.71,0,0,0-.6-.3A4.33,4.33,0,0,0,24,4a1,1,0,0,0-.5.4c-.1.2-.3.3-.3.5V8.5H21.3V2.3H23V3.4c.2-.2.4-.5.6-.6a2,2,0,0,1,.8-.4,3.4,3.4,0,0,1,1-.1,3.55,3.55,0,0,1,1,.2,1.7,1.7,0,0,1,.6.6,6.89,6.89,0,0,1,.3.8c0,.3.1.5.1.8Z"/><path d="M32.6,8.2c-.2.1-.4.1-.6.2a6.37,6.37,0,0,1-.7.2c-.2,0-.5.1-.7.1a1.49,1.49,0,0,1-.9-.2,1,1,0,0,1-.6-.5,1.16,1.16,0,0,1-.2-1V3.7h-.8V2.3h.8V.3h1.9v2h1.3V3.8H30.8V6.4c0,.2,0,.3.2.4s.2.1.4.1a.6.6,0,0,0,.4-.1.76.76,0,0,0,.4-.2Z"/><path d="M35.7,8.6a4.53,4.53,0,0,1-1.6-.3,3.53,3.53,0,0,1-1.3-.8l.7-1.2a3,3,0,0,0,1.1.6,3.55,3.55,0,0,0,1,.2,1.27,1.27,0,0,0,.6-.1c.1-.1.2-.2.2-.3a.37.37,0,0,0-.1-.3c-.1-.1-.2-.1-.4-.2L35.3,6a6.12,6.12,0,0,1-1.2-.5,1.79,1.79,0,0,1-.7-.5,1,1,0,0,1-.2-.9A2,2,0,0,1,33.5,3a1.6,1.6,0,0,1,.9-.7A3.19,3.19,0,0,1,35.8,2a5.85,5.85,0,0,1,1.3.2,7.46,7.46,0,0,1,1.2.7l-.7,1.2a3.13,3.13,0,0,0-1-.5,2.35,2.35,0,0,0-.8-.2h-.4c-.1,0-.2.1-.3.2s-.2.3-.2.4a.37.37,0,0,0,.1.3c.1.1.2.2.3.2l.6.2c.4.1.9.3,1.3.4a1.56,1.56,0,0,1,.8.6,1.61,1.61,0,0,1,.3.9,1.62,1.62,0,0,1-.6,1.5A2.88,2.88,0,0,1,35.7,8.6Z"/><path d="M0,13.6a2.64,2.64,0,0,1,.7-1.9,2.7,2.7,0,0,1,.8-.7,2.34,2.34,0,0,1,1.1-.2,2.77,2.77,0,0,1,1.3.3,2.36,2.36,0,0,1,.8.9l-.4.3a2.65,2.65,0,0,0-.5-.6c-.2-.1-.4-.3-.6-.3a1.27,1.27,0,0,0-.6-.1,2.92,2.92,0,0,0-.9.2A1.79,1.79,0,0,0,1,12a2,2,0,0,0-.4.8,2.49,2.49,0,0,0-.1.8,2.92,2.92,0,0,0,.2.9,2.07,2.07,0,0,0,1.1,1.3,2.35,2.35,0,0,0,.8.2,2,2,0,0,0,.7-.1l.6-.3a2.65,2.65,0,0,0,.5-.6l.5.2a1.79,1.79,0,0,1-.5.7,1.23,1.23,0,0,1-.8.4,2.77,2.77,0,0,1-.9.1,4.25,4.25,0,0,1-1.1-.2,2.7,2.7,0,0,1-.8-.7,4.05,4.05,0,0,1-.5-.9A1.49,1.49,0,0,1,0,13.6Z"/><path d="M7.5,16.6a2.92,2.92,0,0,1-.9-.2A2.09,2.09,0,0,1,6,16a.91.91,0,0,1-.3-.7,1.13,1.13,0,0,1-.1-.8,2,2,0,0,1,.1-.8,1.61,1.61,0,0,1,.4-.7c.2-.2.4-.3.6-.5a2.92,2.92,0,0,1,.9-.2,1.88,1.88,0,0,1,.8.2,3,3,0,0,1,.7.5,1.61,1.61,0,0,1,.4.7,1.13,1.13,0,0,1,.1.8,2,2,0,0,1-.1.8,2.24,2.24,0,0,1-2,1.3ZM6,14.5a1.88,1.88,0,0,0,.2.8,2.65,2.65,0,0,0,.5.6,1.88,1.88,0,0,0,.8.2,2.35,2.35,0,0,0,.8-.2,2.65,2.65,0,0,0,.5-.6,1.49,1.49,0,0,0,.2-.9,1.88,1.88,0,0,0-.2-.8,1.47,1.47,0,0,0-.5-.6,1.08,1.08,0,0,0-.8-.2,1.45,1.45,0,0,0-.7.2,2.65,2.65,0,0,0-.5.6A1.61,1.61,0,0,0,6,14.5Z"/><path d="M14,16.5h-.5V14.2a4.25,4.25,0,0,0-.2-1.1.61.61,0,0,0-.7-.3c-.2,0-.4.1-.6.1a2.18,2.18,0,0,0-.5.4.86.86,0,0,0-.3.6v2.5h-.5V12.2H11v.9a2.18,2.18,0,0,1,.4-.5c.2-.1.4-.3.6-.3a1.7,1.7,0,0,1,.7-.1,1.27,1.27,0,0,1,.6.1.78.78,0,0,1,.4.4,1.42,1.42,0,0,1,.2.6c0,.2.1.5.1.7Z"/><path d="M18.7,16.5h-.5V14.2a2.15,2.15,0,0,0-.2-1.1.61.61,0,0,0-.7-.3c-.2,0-.4.1-.6.1a2.18,2.18,0,0,0-.5.4.86.86,0,0,0-.3.6v2.5h-.5V12.2h.5v.9a2.18,2.18,0,0,1,.4-.5,2.11,2.11,0,0,1,1.3-.5,1.27,1.27,0,0,1,.6.1.78.78,0,0,1,.4.4,1.42,1.42,0,0,1,.2.6c0,.2.1.5.1.7Z"/><path d="M21.7,16.6a2,2,0,0,1-1.5-.6,1.79,1.79,0,0,1-.5-.7,1.18,1.18,0,0,1-.1-.8,2.23,2.23,0,0,1,1-1.8,2.17,2.17,0,0,1,2.2,0,1.78,1.78,0,0,1,.7.8,2,2,0,0,1,.2,1.1v.2H20.2a1.14,1.14,0,0,0,.3.8,1.21,1.21,0,0,0,.5.5,1.85,1.85,0,0,0,.7.2,2.35,2.35,0,0,0,.8-.2,1.21,1.21,0,0,0,.5-.5l.5.1a1,1,0,0,1-.4.5,2.09,2.09,0,0,1-.6.4Zm-1.6-2.3h3.1a1.88,1.88,0,0,0-.2-.8,1.21,1.21,0,0,0-.5-.5,1.85,1.85,0,0,0-.7-.2,1.45,1.45,0,0,0-.7.2,1.21,1.21,0,0,0-.5.5A.82.82,0,0,0,20.1,14.3Z"/><path d="M26.3,16.6a2.14,2.14,0,0,1-2.1-2.2,2.28,2.28,0,0,1,.3-1.1,2.7,2.7,0,0,1,.7-.8,2,2,0,0,1,1.1-.3,1.69,1.69,0,0,1,1,.3,2.34,2.34,0,0,1,.7.7l-.5.2a1.21,1.21,0,0,0-.5-.5,1.36,1.36,0,0,0-1.5,0,1,1,0,0,0-.5.6,3.09,3.09,0,0,0-.2.8,1.88,1.88,0,0,0,.2.8,2.65,2.65,0,0,0,.5.6,1.23,1.23,0,0,0,1.3.1c.2-.1.3-.1.4-.3s.2-.2.2-.3l.5.2a1,1,0,0,1-.4.5,2.09,2.09,0,0,1-.6.4A.6.6,0,0,1,26.3,16.6Z"/><path d="M30.9,16.4l-.2.1c-.1,0-.2.1-.3.1H30c-.2,0-.3,0-.4-.1s-.2-.1-.3-.3a.6.6,0,0,1-.1-.4v-3h-.6v-.4h.6V11h.6v1.4h1v.4h-1v2.8c0,.1.1.3.2.3a.37.37,0,0,0,.3.1.6.6,0,0,0,.4-.1l.2-.1Z"/></svg>