<svg id="Layer_1" data-name="Layer 1" xmlns="http://www.w3.org/2000/svg" width="144.23mm" height="144.2mm" viewBox="0 0 408.85 408.76"><path d="M93,409.11c1-7.73,1.8-15.52,3.14-23.2,8.27-47.35,30.76-86.84,66.7-118.57C193.36,240.4,229,224,269.33,218.68q76-10.08,140.39,31.82a200.19,200.19,0,0,1,57.69,57.22c.56.83,1.2,1.61,2.45,3.26v-4.79c0-12.64,0-25.28,0-37.92,0-10.12,6.71-17.24,16-17.22s15.89,7.14,15.93,17.28c0,15,.12,30.07,0,45.11-.27,29.31-22.3,51.41-51.61,51.73-15.7.16-31.4.08-47.1,0-10.05,0-17.13-6.84-17-16.15.1-9.11,7.15-15.7,17-15.75,14-.07,27.93,0,42.81,0-2.37-3.69-4.25-7-6.46-10-36.93-50.7-86.81-76.08-149.49-74.3-40.92,1.16-76.84,16.4-107.37,43.86-28,25.15-46.4,56-53.82,92.91-10,49.63-.49,95.47,29.39,136.51,25.94,35.63,60.69,58.22,103.86,67.57a165.67,165.67,0,0,0,46,3.38,37.57,37.57,0,0,1,9.89.36A15.57,15.57,0,0,1,330.06,610a16,16,0,0,1-14.39,14.69l-7.89.8H285.42c-5.39-.65-10.8-1.19-16.17-2-40.31-5.69-75.94-21.79-106.44-48.73-35.93-31.73-58.4-71.21-66.67-118.55C94.8,448.58,94,440.8,93,433.07Z" transform="translate(-93 -216.73)" fill="#d80000"/><path d="M313.37,357.42c0,20.62-.07,41.25,0,61.87a19,19,0,0,1-5.85,14.29Q277,464,246.55,494.5c-9.77,9.72-24.46,6.37-27.77-6.26-1.63-6.22.39-11.52,4.85-16l19.75-19.76c11.58-11.57,23.09-23.2,34.77-34.66a10.08,10.08,0,0,0,3.36-7.95q-.19-57.48-.07-114.95c0-8.25,3.88-14.24,10.59-16.61,10.63-3.75,21.23,3.9,21.3,15.63.13,20.22,0,40.44,0,60.67Z" transform="translate(-93 -216.73)" fill="#d80000"/><path d="M375.58,609.07a16.57,16.57,0,0,1-15.28-12.18,15.36,15.36,0,0,1,7.12-17.5,176,176,0,0,1,16.35-8.23,15.71,15.71,0,0,1,20.37,7.37,15.5,15.5,0,0,1-5.77,20.56c-5.34,3.19-11,5.84-16.67,8.49C379.84,608.46,377.63,608.6,375.58,609.07Z" transform="translate(-93 -216.73)" fill="#d80000"/><path d="M462.46,474c1.49-5.1,3.11-13,6.12-20.25,2.89-7,11.39-9.81,18.65-7.48s12,9.36,10.7,17a127.47,127.47,0,0,1-5.07,19.61c-2.58,7.43-10.33,11-18.52,9.3C467.47,490.73,462.39,484.13,462.46,474Z" transform="translate(-93 -216.73)" fill="#d80000"/><path d="M449.59,517.6c12.12,0,20,13.34,13.59,23.6a99.52,99.52,0,0,1-13.25,16.37c-5.64,5.77-15.05,5.52-21,.23a15.58,15.58,0,0,1-2.55-20.91c3.66-5,7.7-9.84,11.82-14.53A14.21,14.21,0,0,1,449.59,517.6Z" transform="translate(-93 -216.73)" fill="#d80000"/></svg>