<svg id="Layer_1" data-name="Layer 1" xmlns="http://www.w3.org/2000/svg" width="35.28mm" height="35.28mm" viewBox="0 0 100 100"><rect x="-3.15" y="-0.94" width="104.05" height="103.53" fill="#fff"/><path d="M76.66,39.76l-.42-.19L49,26.86a.42.42,0,0,0-.31,0L21.29,39.7h-.2V37.35c0-.14,0-.18.15-.25l14.81-6.81L48.71,24.4a.25.25,0,0,1,.31,0L71.61,34.85l5,2.24h0Z"/><path d="M75.74,49.67l-4.13-2V63h-3.1V46.57a.26.26,0,0,0-.17-.31L50.35,38H50.2v10.6h-3V38l-1.06.51-16.6,7.65a.3.3,0,0,0-.19.31v5.79h-3V47.56L22,49.67V40.52c0-.16,0-.23.16-.28L48.66,27.83a.35.35,0,0,1,.37,0L75.54,40.24a.21.21,0,0,1,.15.25v9.18Z"/><path d="M43.29,77V64.74H52.6V67H46.19v2.64h5.67v2.23H46.19v2.82h6.69v2.22Z"/><path d="M40.89,66.74,39.13,68.3c-.37-.3-.77-.56-1.18-.83a4.32,4.32,0,0,0-4.85.5A3.49,3.49,0,0,0,32,70.08a4.17,4.17,0,0,0,.39,2.75,3.73,3.73,0,0,0,2.23,1.75,4.62,4.62,0,0,0,3.35-.25.21.21,0,0,0,.24-.19.27.27,0,0,0,0-.09V70.72h2.59V75.5a.37.37,0,0,1-.14.29A8.25,8.25,0,0,1,37,77.14a7.46,7.46,0,0,1-3.57-.31,5.86,5.86,0,0,1-4.13-4.65,6.23,6.23,0,0,1,1.66-5.78,6.45,6.45,0,0,1,3.59-1.75,7.72,7.72,0,0,1,4.2.42A5.77,5.77,0,0,1,41,66.53Z"/><path d="M65.86,66.74,64,68.4A3.87,3.87,0,0,0,60.55,67a3.57,3.57,0,0,0-2.5,1.18,4.21,4.21,0,0,0,0,5.44,4.08,4.08,0,0,0,5.77,0h0l.2-.2,1.8,1.66a5.65,5.65,0,0,1-1.27,1.17,6.64,6.64,0,0,1-3.44,1,7.06,7.06,0,0,1-4-1,5.85,5.85,0,0,1-2.91-4.65,6,6,0,0,1,1.55-4.78,6.23,6.23,0,0,1,3.64-2.13,7.51,7.51,0,0,1,4.47.39,6.09,6.09,0,0,1,1.9,1.4Z"/><path d="M71.61,76.91h-3.1V64.62h3.1Z"/><path d="M29.39,60.3h-3V53.62h3Z"/><path d="M64.65,57a3.5,3.5,0,0,1,.62.41,1.56,1.56,0,0,1,.07,2.19l-.07.07a1.67,1.67,0,0,1-.56.39,3.5,3.5,0,0,1-1.15.22H60.3V53.88h2.87a3,3,0,0,1,1.26.22,1.55,1.55,0,0,1,.93,1.25,1.58,1.58,0,0,1-.71,1.56Zm-3.37,2.5H63.5a3.51,3.51,0,0,0,.85-.14.8.8,0,0,0,.57-.87.85.85,0,0,0-.55-.88,2,2,0,0,0-.52-.16H61.43Zm0-2.81h1.83a2.43,2.43,0,0,0,.84-.18.81.81,0,0,0,.51-.79.79.79,0,0,0-.48-.81,2.51,2.51,0,0,0-.76-.2h-2Z"/><path d="M39,59.44v.77H34.59V53.88H39v.78H35.3v1.92h3.1v.75H35.3v2Z"/><path d="M45,59.44v.77H40.58V53.88H45v.78H41.38v1.92h3.11v.75H41.38v2Z"/><path d="M51.07,59.44v.77H46.61V53.88h4.46v.78H47.33v1.92h3.1v.78h-3.1v2Z"/><path d="M54.54,58.81a3.25,3.25,0,0,0,1.55.69,2.8,2.8,0,0,0,1.35,0,.89.89,0,0,0,.66-1.07h0a.8.8,0,0,0-.47-.48l-1.05-.36c-.38-.09-.73-.19-1.09-.31a1.56,1.56,0,0,1,0-3.11,3.89,3.89,0,0,1,3.23.24h0l-.28.66-1.15-.38a2.18,2.18,0,0,0-1.29,0,.9.9,0,0,0-.81.77.69.69,0,0,0,.35.61,2.39,2.39,0,0,0,.63.34l1.65.45a2,2,0,0,1,.82.47,1.55,1.55,0,0,1,0,2.18h0l-.14.13a2.59,2.59,0,0,1-1.37.49,4.33,4.33,0,0,1-2.35-.42l-.39-.29a.12.12,0,0,1,0-.14Z"/><path d="M31.67,53.88h.87v6.21h-.87Z"/></svg>