<svg id="Layer_1" data-name="Layer 1" xmlns="http://www.w3.org/2000/svg" width="37.85" height="38.09" viewBox="0 0 37.85 38.09"><path d="M-39.77,16.92a7.91,7.91,0,0,0-.9.3,2.35,2.35,0,0,0-1.19,1.27A2.5,2.5,0,0,0-42,20a3.94,3.94,0,0,0,.34.72,2,2,0,0,0,.74.74.27.27,0,0,1,.12.31c0,.4-.08.79-.14,1.2s-.1.71-.15,1.07a5.43,5.43,0,0,1-.09.69,1.28,1.28,0,0,1-.06.33l-4.19-7.17c-.31.44-.62.89-.91,1.33a.11.11,0,0,0,0,.11c.44.79.88,1.52,1.32,2.28.35.59.71,1.19,1.06,1.8l1.2,2.07,1.08,1.84.8,1.38c.15.25.3.49.44.75a1,1,0,0,1,.11.23,5.54,5.54,0,0,1-.56-.11c-.06,0-.12-.13-.14-.22a2,2,0,0,0-.58-1,4,4,0,0,0-.71-.44,1.35,1.35,0,0,0-.79-.15,2,2,0,0,0-1.28.46,1.86,1.86,0,0,0-.7,1.31,1.87,1.87,0,0,0,.74,1.78,2.05,2.05,0,0,0,.8.42,2.07,2.07,0,0,0,1.3-.1,2,2,0,0,0,1.06-.93.14.14,0,0,1,.18-.1l1.32.28a.24.24,0,0,1,.17.14c.43.71.85,1.42,1.27,2.15s.87,1.5,1.31,2.26l1.59,2.65c.26.43.5.86.76,1.31H-43.9l.18-.37a1.63,1.63,0,0,0,.15-.72.74.74,0,0,1,0-.21,1.09,1.09,0,0,0-.1-.5,1.61,1.61,0,0,0-.16-.38,2.35,2.35,0,0,0-.36-.47,1.39,1.39,0,0,0-.62-.36,1.91,1.91,0,0,1-.51-.17h-.22a1.63,1.63,0,0,0-.3.07l-.57.24a1.64,1.64,0,0,0-.35.3,1.75,1.75,0,0,0-.5,1.1c0,.12-.1.26-.07.36.12.36.09.79.42,1.11h-.35a.06.06,0,0,1-.06-.06l-.93-1.59-1.15-1.89-.85-1.53-1-1.77-1-1.64a.24.24,0,0,1,0-.26c.57-.89,1.12-1.79,1.68-2.68.36-.59.73-1.18,1.11-1.78l5.45,9.5,1-.59c-.21-.35-.4-.71-.6-1.06l-.66-1.14c-.3-.53-.6-1.05-.9-1.6L-45.9,30l-1-1.71-.89-1.54c-.29-.51-.57-1-.87-1.51L-49.36,24l-.9-1.6c-.25-.43-.5-.86-.74-1.29-.37-.65-.79-1.31-1.12-2a.26.26,0,0,1,0-.21c.33-.56.65-1.12,1-1.68L-50,15.25l1.16-2c.38-.65.8-1.29,1.14-2a.43.43,0,0,1,.45-.25h3.84a.28.28,0,0,1,.3.16c.38.68.8,1.34,1.17,2,.29.5.57,1,.87,1.51l1.11,1.9A.84.84,0,0,1-39.77,16.92Z" transform="translate(64.46 -11.04)" fill="#fff"/><path d="M-48.71,39.47h-2.37a.36.36,0,0,1-.29-.13c-.22-.24-.44-.48-.65-.73a.4.4,0,0,1-.09-.21,1,1,0,0,1,0-.25,1.46,1.46,0,0,0-.17-.68,2.16,2.16,0,0,0-.41-.62,1.31,1.31,0,0,0-.63-.41c-.19,0-.35-.13-.53-.16a1,1,0,0,0-.34,0h-.07a.8.8,0,0,0-.5.15,1.72,1.72,0,0,0-.74.62,1.9,1.9,0,0,0-.3.8h0l-1.06-1.55-.27.39-1.32,1.91a8.3,8.3,0,0,1-.5.71.23.23,0,0,1-.17.1h-5.34L-52.88,20a4.36,4.36,0,0,1,.24.41c.51.87,1,1.74,1.51,2.62l1,1.73a.17.17,0,0,1,0,.19l-.8,1.35-1.27,2.06c-.15.23-.29.46-.47.72a1.29,1.29,0,0,0-.07-.31,1,1,0,0,0-.06-.35.24.24,0,0,1,.13-.27,2.12,2.12,0,0,0,.84-1,2.06,2.06,0,0,0-.16-1.9,1.89,1.89,0,0,0-1.37-.92,1.93,1.93,0,0,0-1.7.49,1.88,1.88,0,0,0-.6,1.13,1.79,1.79,0,0,0,0,.86A2.14,2.14,0,0,0-55,28a2,2,0,0,0,.87.47c.06,0,.12.11.14.19l.39,1.86v.07c-.13.15,0,.27.06.38l1.3,2.28c.49.79,1,1.67,1.45,2.51l1.13,2,.91,1.59A.74.74,0,0,1-48.71,39.47Z" transform="translate(64.46 -11.04)" fill="#fff"/><path d="M-33.46,38.26l-.31-.51L-35,35.62l-1.07-1.85c-.31-.53-.63-1.05-.94-1.59l-1-1.6-.86-1.46-1.15-2c0-.05,0-.09-.08-.13a.87.87,0,0,1-.08-.72c0-.21.06-.42.08-.63l.1-.79a7,7,0,0,1,.11-.8l.14-1.09c0-.26.07-.51.1-.8s0-.26.29-.3A2.94,2.94,0,0,0-38,21.3l.56-.49c1.43,2.46,2.9,5,4.32,7.48l-.33-.3a2.3,2.3,0,0,0-1.59-.6,2.15,2.15,0,0,0-1.42.38,2.13,2.13,0,0,0-.56.56,2.44,2.44,0,0,0-.34.61,2.3,2.3,0,0,0-.16,1.16,2.65,2.65,0,0,0,.44,1.18,2.48,2.48,0,0,0,1.12.88,2.22,2.22,0,0,0,1.08.18h.05c.35-.07.36,0,.54.31.55,1,1.11,2.07,1.65,3.11.18.33.34.65.5,1a.64.64,0,0,1-.27.8A4.13,4.13,0,0,1-33.46,38.26Z" transform="translate(64.46 -11.04)" fill="#fff"/><path d="M-32.67,29.05l6.06,10.41h-6a.21.21,0,0,1-.23-.2v0a.45.45,0,0,1,.1-.1c.35-.2.72-.38,1.06-.6a1.69,1.69,0,0,0,.8-1A1.58,1.58,0,0,0-31,36.42l-1.1-2.14c-.37-.71-.8-1.47-1.18-2.2-.12-.23-.12-.27.07-.45a2.2,2.2,0,0,0,.62-1.22,2.15,2.15,0,0,0,0-.8,4.51,4.51,0,0,1-.1-.53Z" transform="translate(64.46 -11.04)" fill="#fff"/><path d="M-47.57,42.41V43.8c0,.14,0,.18-.17.18h-.67c-.1,0-.14,0-.14-.14v-3c0-.11,0-.15.15-.15h.6a.33.33,0,0,1,.3.15l1.15,1.35a.93.93,0,0,0,.14.14V40.82c0-.13,0-.18.18-.17h.65c.22,0,.15,0,.15.15v3c0,.11,0,.16-.15.15h-.68a.37.37,0,0,1-.19-.09l-1.17-1.32Z" transform="translate(64.46 -11.04)" fill="#fff"/><path d="M-49.28,42.31v1.48c0,.14,0,.19-.18.19a4.33,4.33,0,0,0-.72,0c-.15,0-.19-.06-.18-.19V42.9c0-.14,0-.2-.19-.2h-.8c-.14,0-.17.06-.17.18v.9c0,.16-.06.2-.19.2h-.74c-.11,0-.15,0-.15-.15v-3c0-.11,0-.14.15-.14h.79c.11,0,.16,0,.16.15v.89c0,.13,0,.18.17.17h.84c.14,0,.19,0,.19-.17v-.86c0-.13,0-.19.17-.18h.73c.24,0,.17,0,.17.16C-49.28,41.31-49.28,41.82-49.28,42.31Z" transform="translate(64.46 -11.04)" fill="#fff"/><path d="M-37,42.3V40.82c0-.13,0-.17.16-.17h.75c.24,0,.17,0,.17.17v.89c0,.11,0,.15.16.15h.87c.12,0,.17,0,.17-.15v-.9c0-.12,0-.16.16-.16h.75c.11,0,.15,0,.15.15v3c0,.1,0,.14-.14.14h-.8c-.09,0-.13,0-.13-.14v-1c0-.12,0-.17-.16-.17h-.88c-.12,0-.16.06-.16.17v.93c0,.12,0,.18-.16.17h-.79c-.12,0-.15,0-.15-.16Z" transform="translate(64.46 -11.04)" fill="#fff"/><path d="M-42.79,40.55a5.54,5.54,0,0,1,.8.21,1.25,1.25,0,0,1,.79.91,2.25,2.25,0,0,1,0,1.36,1.36,1.36,0,0,1-1,.91,2.43,2.43,0,0,1-1.31,0,1.42,1.42,0,0,1-1.18-1.29,2.22,2.22,0,0,1,.13-1.17,1.45,1.45,0,0,1,1.17-.83A4.88,4.88,0,0,1-42.79,40.55Zm.65,1.76a1.13,1.13,0,0,0,0-.41.61.61,0,0,0-.61-.51.64.64,0,0,0-.71.41,1.74,1.74,0,0,0,0,1,.65.65,0,0,0,.72.43.64.64,0,0,0,.6-.51C-42.17,42.6-42.16,42.45-42.14,42.31Z" transform="translate(64.46 -11.04)" fill="#fff"/><path d="M-48.59,47.42V45.94c0-.14.05-.19.18-.18h2.55c.13,0,.19,0,.18.18a3.53,3.53,0,0,0,0,.46c0,.12,0,.16-.17.16h-1.48c-.14,0-.18,0-.18.18,0,.34,0,.3.31.3h1.09c.12,0,.16,0,.15.15s0,.31,0,.46,0,.14-.14.14h-1.24c-.13,0-.17,0-.17.18s0,.33.34.33h1.35c.12,0,.16,0,.16.16V49a.11.11,0,0,1-.09.13h-2.71c-.12,0-.12-.07-.12-.15Z" transform="translate(64.46 -11.04)" fill="#fff"/><path d="M-59.9,42.29v-1.5c0-.12,0-.17.15-.16h2.56c.13,0,.18,0,.17.17a3.68,3.68,0,0,0,0,.47c0,.12,0,.16-.17.16h-1.46c-.19,0-.19,0-.19.2s0,.28.28.28h1.11c.12,0,.17,0,.16.16v.46c0,.12,0,.16-.15.16h-1.22c-.14,0-.19,0-.18.18,0,.33,0,.31.32.31h1.36c.13,0,.18,0,.17.18s0,.33,0,.5,0,.12-.13.12h-2.69c-.12,0-.13-.06-.13-.16Z" transform="translate(64.46 -11.04)" fill="#fff"/><path d="M-38.1,41.67h-.25c-.14,0-.26,0-.3-.18s-.39-.24-.59-.16-.24.06-.24.2.13.2.24.23c.32.09.65.15,1,.24a1,1,0,0,1,.59.37,1,1,0,0,1-.27,1.4,1.63,1.63,0,0,1-.93.25,2.46,2.46,0,0,1-1.23-.2,1,1,0,0,1-.52-.8c0-.1,0-.13.13-.13h.75c.08,0,.12,0,.14.11a.31.31,0,0,0,.33.29h.44a.21.21,0,0,0,.22-.17.21.21,0,0,0-.17-.23c-.23-.06-.46-.1-.69-.17a3.38,3.38,0,0,1-.69-.26,1,1,0,0,1-.27-1.32,1,1,0,0,1,.27-.27,2.3,2.3,0,0,1,2.15.05.92.92,0,0,1,.38.65c0,.1,0,.14-.12.14Z" transform="translate(64.46 -11.04)" fill="#fff"/><path d="M-54.23,42v-.14a.49.49,0,0,0-.38-.44.61.61,0,0,0-.67.18.58.58,0,0,0-.12.25,2.41,2.41,0,0,0,0,1,.54.54,0,0,0,.57.39c.32,0,.53-.13.58-.4s.11-.23.28-.21h.59c.13,0,.17,0,.15.16a1.24,1.24,0,0,1-1,1.18,2.81,2.81,0,0,1-1.29,0,1.41,1.41,0,0,1-1-1.24,2.75,2.75,0,0,1,.06-1.07,1.29,1.29,0,0,1,.79-.89,2.18,2.18,0,0,1,1.7,0,1.29,1.29,0,0,1,.8,1.16s0,.1-.07.1C-53.57,42-53.89,42-54.23,42Z" transform="translate(64.46 -11.04)" fill="#fff"/><path d="M-49.68,47.15h-.41s-.1-.07-.1-.11a.57.57,0,0,0-.6-.53h-.06a.57.57,0,0,0-.55.58,3.58,3.58,0,0,0,0,.8c.06.31.28.43.65.41a.51.51,0,0,0,.54-.45c0-.12.07-.15.17-.14h.69c.11,0,.14,0,.13.14a1.23,1.23,0,0,1-1,1.19A2.52,2.52,0,0,1-51.61,49a1.28,1.28,0,0,1-.8-.89,2.44,2.44,0,0,1,.09-1.6,1.3,1.3,0,0,1,.93-.74,2.66,2.66,0,0,1,1.19,0,1.3,1.3,0,0,1,1,1.23c0,.1,0,.15-.14.14s-.25,0-.36,0Z" transform="translate(64.46 -11.04)" fill="#fff"/><path d="M-31,42.25V40.76c0-.13,0-.17.16-.16h1.64a1.09,1.09,0,0,1,1.17,1,1.17,1.17,0,0,1-.06.45,1,1,0,0,1-.95.79h-.72c-.12,0-.17,0-.16.17v.8c0,.12,0,.17-.17.16h-.75c-.12,0-.16,0-.16-.15V42.25Zm1.08-.53c0,.36,0,.36.36.36h.06a.3.3,0,0,0,.35-.35c0-.24-.09-.34-.35-.34h-.09c-.37.06-.32,0-.33.36Z" transform="translate(64.46 -11.04)" fill="#fff"/><path d="M-62,40.65h1.45c.13,0,.19,0,.18.19s0,.35,0,.53,0,.13-.14.13h-.79c-.14,0-.19,0-.18.17v2.12c0,.19,0,.19-.19.19h-.71c-.13,0-.17,0-.17-.18V41.67c0-.13,0-.18-.18-.18h-.8c-.1,0-.14,0-.14-.14v-.56c0-.19,0-.14.15-.14Z" transform="translate(64.46 -11.04)" fill="#fff"/><path d="M-36.26,29.89A1.3,1.3,0,0,1-35,28.61a1.28,1.28,0,0,1,1.32,1.22v0a1.26,1.26,0,0,1-1.18,1.32,1.27,1.27,0,0,1-1.39-1.13A1,1,0,0,1-36.26,29.89Z" transform="translate(64.46 -11.04)" fill="#fff"/><path d="M-45.08,47.44V46c0-.16,0-.2.2-.19h.68c.22,0,.2,0,.2.19V48c0,.22,0,.22.22.22h1.33c.14,0,.19,0,.18.2s0,.35,0,.53,0,.12-.12.12h-2.55c-.12,0-.13-.06-.13-.15Z" transform="translate(64.46 -11.04)" fill="#fff"/><path d="M-41.84,47.44V46c0-.13,0-.19.17-.18h.73c.24,0,.18,0,.18.17v2.12c0,.15,0,.2.19.19h1.37c.12,0,.18,0,.17.17s0,.37,0,.54,0,.14-.13.14H-41.7c-.11,0-.13-.05-.13-.14Z" transform="translate(64.46 -11.04)" fill="#fff"/><path d="M-40.8,19.32a1.28,1.28,0,0,1,1.1-1.22,1.41,1.41,0,0,1,.29,0,.49.49,0,0,1,.47.24c.18.35.38.68.59,1a.55.55,0,0,1,0,.58,1.27,1.27,0,0,1-1.08.74,1.28,1.28,0,0,1-1.34-1.06Z" transform="translate(64.46 -11.04)" fill="#fff"/><path d="M-31.81,42.32v1.46c0,.14,0,.2-.18.2h-.74c-.11,0-.16,0-.16-.15v-3c0-.11,0-.15.15-.15H-32c.13,0,.18.05.18.19C-31.81,41.32-31.81,41.82-31.81,42.32Z" transform="translate(64.46 -11.04)" fill="#fff"/><path d="M-43,28.77a1.07,1.07,0,0,1,1,1.06,1,1,0,0,1-1,1h-.07a1,1,0,0,1-1.06-1v0a1,1,0,0,1,1.1-1Z" transform="translate(64.46 -11.04)" fill="#fff"/><path d="M-53.75,25.33a1.11,1.11,0,0,1,1.11,1.05,1.09,1.09,0,0,1-1.1,1.08h0a1.05,1.05,0,0,1-1-1.05A1.07,1.07,0,0,1-53.75,25.33Z" transform="translate(64.46 -11.04)" fill="#fff"/><path d="M-46.15,38.3a.69.69,0,0,1,.65-.73h0a.75.75,0,0,1,.72.73.81.81,0,0,1-.71.76A.74.74,0,0,1-46.15,38.3Z" transform="translate(64.46 -11.04)" fill="#fff"/><path d="M-54.63,38.26a.66.66,0,0,1,.46-.68.56.56,0,0,1,.47.05c.29.12.33.4.43.65-.1.13,0,.31-.18.44A.8.8,0,0,1-54,39a.68.68,0,0,1-.67-.7Z" transform="translate(64.46 -11.04)" fill="#fff"/></svg>