<svg id="Layer_1" data-name="Layer 1" xmlns="http://www.w3.org/2000/svg" width="58.52" height="47.78" viewBox="0 0 58.52 47.78"><path d="M31,7.31a11.53,11.53,0,0,0-1.13.38,2.94,2.94,0,0,0-1.49,1.59,3.08,3.08,0,0,0-.14,1.92,4.45,4.45,0,0,0,.43.91,2.64,2.64,0,0,0,.92.93.34.34,0,0,1,.16.38c-.06.51-.11,1-.18,1.51s-.13.89-.19,1.34a6.47,6.47,0,0,1-.11.87,1.86,1.86,0,0,1-.08.41L24,8.55c-.39.56-.77,1.12-1.14,1.67a.17.17,0,0,0,0,.14c.55,1,1.1,1.91,1.66,2.86.44.75.89,1.5,1.33,2.26l1.5,2.6c.45.78.91,1.54,1.36,2.31l1,1.73c.19.31.38.62.56.94a2.59,2.59,0,0,1,.14.29,5.57,5.57,0,0,1-.71-.14c-.08,0-.15-.16-.18-.27a2.5,2.5,0,0,0-.72-1.26,4.54,4.54,0,0,0-.89-.55,1.83,1.83,0,0,0-1-.19,2.54,2.54,0,0,0-1.6.58,2.3,2.3,0,0,0-.88,1.64,2.35,2.35,0,0,0,.93,2.24,2.66,2.66,0,0,0,1,.52A2.57,2.57,0,0,0,28,25.8a2.48,2.48,0,0,0,1.32-1.17.19.19,0,0,1,.23-.12c.56.12,1.11.22,1.66.35a.33.33,0,0,1,.21.17c.54.89,1.07,1.79,1.6,2.7l1.64,2.84,2,3.33c.32.54.62,1.08.95,1.64H25.85c.08-.15.16-.31.23-.47a2,2,0,0,0,.19-.9,1.13,1.13,0,0,1,0-.26,1.37,1.37,0,0,0-.13-.63,1.68,1.68,0,0,0-.2-.48,2.88,2.88,0,0,0-.45-.59,1.76,1.76,0,0,0-.78-.45,2.66,2.66,0,0,1-.64-.21.62.62,0,0,0-.27,0,1.24,1.24,0,0,0-.38.09c-.24.09-.48.19-.71.3a2.39,2.39,0,0,0-1.07,1.76c0,.15-.13.32-.09.44.15.46.11,1,.53,1.4h-.44a.09.09,0,0,1-.08-.07l-1.16-2L19,31.1l-1.06-1.93L16.62,27l-1.19-2.07a.27.27,0,0,1,0-.32c.71-1.12,1.4-2.25,2.1-3.37.45-.74.92-1.47,1.4-2.23L25.77,30.9l1.29-.74c-.26-.45-.5-.89-.75-1.33l-.83-1.44c-.38-.66-.76-1.31-1.13-2l-1-1.68-1.24-2.15L21,19.62c-.36-.63-.72-1.26-1.09-1.89L19,16.13l-1.13-2c-.31-.54-.62-1.08-.92-1.62-.47-.82-1-1.64-1.41-2.47a.32.32,0,0,1,0-.27c.41-.7.82-1.4,1.24-2.1l1.44-2.45,1.46-2.5c.48-.82,1-1.62,1.43-2.46a.55.55,0,0,1,.57-.32H26.5a.36.36,0,0,1,.37.21c.48.85,1,1.68,1.47,2.52.37.63.72,1.27,1.09,1.89L30.83,7A1.32,1.32,0,0,1,31,7.31Z" fill="#fff"/><path d="M19.82,35.61h-3a.44.44,0,0,1-.37-.16c-.27-.3-.55-.6-.82-.91a.54.54,0,0,1-.11-.27.81.81,0,0,1,0-.31,1.85,1.85,0,0,0-.21-.86,2.73,2.73,0,0,0-.52-.78,1.6,1.6,0,0,0-.79-.51c-.23,0-.44-.16-.66-.2a1.55,1.55,0,0,0-.43,0h-.09a1,1,0,0,0-.63.19,2.12,2.12,0,0,0-.92.78,2.39,2.39,0,0,0-.38,1h0L9.59,31.64l-.34.49L7.6,34.52q-.3.45-.63.9a.3.3,0,0,1-.22.12H.05L14.59,11.23q.16.25.3.51c.64,1.09,1.27,2.19,1.89,3.29.42.72.83,1.44,1.24,2.17a.21.21,0,0,1,0,.24l-1,1.69c-.53.87-1.07,1.73-1.6,2.59-.18.29-.36.58-.58.91a1.73,1.73,0,0,0-.09-.39,1.34,1.34,0,0,0-.08-.45.29.29,0,0,1,.16-.33,2.65,2.65,0,0,0,1.06-1.21,2.6,2.6,0,0,0-.2-2.38A2.41,2.41,0,0,0,14,16.71a2.44,2.44,0,0,0-2.14.62,2.47,2.47,0,0,0-.75,1.42,2.42,2.42,0,0,0,0,1.07,2.75,2.75,0,0,0,.84,1.39,2.54,2.54,0,0,0,1.1.58c.07,0,.15.15.17.25.17.77.33,1.55.49,2.33v.09c-.16.19,0,.34.08.48l1.63,2.85c.61,1,1.22,2.1,1.82,3.16.48.83.94,1.66,1.42,2.49l1.14,2A1.09,1.09,0,0,1,19.82,35.61Z" fill="#fff"/><path d="M39,34.1l-.39-.65c-.53-.89-1.06-1.78-1.58-2.67l-1.35-2.32c-.39-.66-.79-1.32-1.18-2l-1.19-2-1.08-1.83L30.75,20.1c0-.06-.06-.11-.1-.16a1.12,1.12,0,0,1-.1-.91,6.93,6.93,0,0,1,.1-.78l.12-1a8,8,0,0,1,.14-1l.18-1.37c0-.32.09-.64.12-1s0-.33.37-.38a3.56,3.56,0,0,0,1.68-.69c.23-.19.45-.39.7-.61,1.8,3.08,3.64,6.21,5.42,9.38L39,21.2a2.9,2.9,0,0,0-2-.75,2.75,2.75,0,0,0-1.78.48,2.91,2.91,0,0,0-.7.7,3.23,3.23,0,0,0-.43.77,3,3,0,0,0-.2,1.45,3.34,3.34,0,0,0,.56,1.49,3.15,3.15,0,0,0,1.4,1.1,3,3,0,0,0,1.36.23h.06c.44-.09.45-.05.68.38.69,1.31,1.39,2.6,2.07,3.91.22.41.43.82.62,1.24a.79.79,0,0,1-.33,1A5.15,5.15,0,0,1,39,34.1Z" fill="#fff"/><path d="M40,22.54,47.56,35.6H40a.27.27,0,0,1-.29-.25v0a.6.6,0,0,1,.12-.13c.45-.25.91-.48,1.34-.75a2.16,2.16,0,0,0,1-1.29A2,2,0,0,0,42,31.79c-.45-.9-.92-1.8-1.38-2.69s-1-1.84-1.47-2.76c-.15-.29-.15-.34.08-.56a2.78,2.78,0,0,0,.78-1.54,2.41,2.41,0,0,0,0-1c-.06-.22-.09-.44-.13-.66Z" fill="#fff"/><path d="M21.25,39.3v1.75c0,.17-.06.22-.21.22H20.2c-.13,0-.18,0-.18-.17V37.29c0-.14.06-.19.19-.19H21a.44.44,0,0,1,.38.18L22.78,39l.18.17V37.31c0-.17.05-.23.22-.22H24c.27,0,.19.06.19.19v3.8c0,.13,0,.19-.19.18h-.85a.44.44,0,0,1-.24-.11l-1.47-1.66Z" fill="#fff"/><path d="M19.1,39.18V41c0,.17-.05.23-.22.23a6.91,6.91,0,0,0-.91,0c-.18,0-.23-.07-.22-.23V39.92c0-.18,0-.25-.24-.25h-1c-.18,0-.22.07-.22.23V41c0,.19-.07.24-.24.24h-.93c-.13,0-.18,0-.18-.18V37.27c0-.14.05-.18.18-.18h1c.14,0,.2,0,.2.2V38.4c0,.16,0,.23.21.22h1.06c.17,0,.23,0,.23-.22V37.32c0-.16,0-.24.22-.23H19c.3,0,.22,0,.22.21A17,17,0,0,0,19.1,39.18Z" fill="#fff"/><path d="M34.55,39.17V37.31c0-.16.05-.22.21-.22h.93c.31,0,.22.06.22.22v1.12c0,.14,0,.19.2.19H37.2c.15,0,.22,0,.21-.2V37.3c0-.15,0-.21.2-.21h1c.13,0,.18,0,.18.19V41.1c0,.12,0,.18-.17.17h-1c-.12,0-.17,0-.17-.17V39.88c0-.15,0-.21-.2-.21H36.1c-.16,0-.2.07-.2.21v1.17c0,.15,0,.22-.2.21h-1c-.15,0-.19,0-.19-.2Z" fill="#fff"/><path d="M27.25,37a7,7,0,0,1,1,.26,1.61,1.61,0,0,1,1,1.15,2.9,2.9,0,0,1,0,1.7A1.73,1.73,0,0,1,28,41.23a3.25,3.25,0,0,1-1.64,0,1.79,1.79,0,0,1-1.48-1.63,2.7,2.7,0,0,1,.16-1.46,1.81,1.81,0,0,1,1.47-1A4.89,4.89,0,0,1,27.25,37Zm.81,2.21a1.51,1.51,0,0,0-.06-.52.75.75,0,0,0-.76-.63.78.78,0,0,0-.89.51,2.12,2.12,0,0,0,0,1.27.88.88,0,0,0,1.65-.1C28,39.54,28,39.36,28.06,39.18Z" fill="#fff"/><path d="M20,45.59V43.73c0-.17.06-.23.23-.22h3.19c.17,0,.24,0,.23.22a2.81,2.81,0,0,0,0,.58c0,.15-.06.2-.21.2H21.55c-.18,0-.23,0-.23.23,0,.43,0,.37.39.37h1.37c.15,0,.2,0,.19.19s0,.39,0,.58,0,.18-.18.18H21.54c-.17,0-.22,0-.22.22,0,.42,0,.42.43.42h1.69c.15,0,.21,0,.21.2v.65a.14.14,0,0,1-.12.16h-3.4c-.15,0-.15-.09-.15-.19Z" fill="#fff"/><path d="M5.77,39.15V37.27c0-.15,0-.21.19-.2H9.18c.16,0,.22,0,.21.21a5.81,5.81,0,0,0,0,.59c0,.16,0,.21-.21.21H7.34c-.23,0-.23,0-.24.25s0,.35.35.35h1.4c.15,0,.21,0,.2.2v.58c0,.14,0,.19-.19.19H7.33c-.18,0-.24,0-.23.23,0,.41,0,.39.4.39H9.21c.17,0,.23.07.22.23s0,.41,0,.62,0,.16-.17.16H5.89c-.15,0-.16-.08-.16-.2Z" fill="#fff"/><path d="M33.13,38.37h-.31c-.17,0-.32,0-.38-.22s-.48-.3-.73-.2-.31.07-.31.25.17.25.31.29c.4.11.81.19,1.21.3a1.21,1.21,0,0,1,.4,2.22,2,2,0,0,1-1.17.31,3,3,0,0,1-1.54-.25,1.18,1.18,0,0,1-.65-1c0-.12,0-.16.16-.16h.94c.11,0,.15,0,.18.14a.4.4,0,0,0,.41.36,5,5,0,0,0,.55,0,.25.25,0,0,0,.28-.22.25.25,0,0,0-.21-.28c-.29-.08-.58-.13-.87-.22a4.22,4.22,0,0,1-.86-.32,1.21,1.21,0,0,1-.34-1.66,1.22,1.22,0,0,1,.34-.34,2.87,2.87,0,0,1,2.7.07,1.12,1.12,0,0,1,.47.81c0,.12,0,.18-.15.18Z" fill="#fff"/><path d="M12.89,38.79a.54.54,0,0,0,0-.18.62.62,0,0,0-.48-.55.75.75,0,0,0-.84.23.89.89,0,0,0-.15.31,3.34,3.34,0,0,0,0,1.26.67.67,0,0,0,.72.48c.4,0,.66-.16.73-.5s.13-.28.35-.26a4.57,4.57,0,0,0,.74,0c.16,0,.21,0,.19.2a1.56,1.56,0,0,1-1.26,1.48,3.41,3.41,0,0,1-1.62,0A1.76,1.76,0,0,1,10,39.71a3.61,3.61,0,0,1,.07-1.35,1.59,1.59,0,0,1,1-1.11,2.72,2.72,0,0,1,2.13,0,1.58,1.58,0,0,1,1,1.45s0,.13-.08.13C13.72,38.8,13.32,38.79,12.89,38.79Z" fill="#fff"/><path d="M18.6,45.25h-.51a.17.17,0,0,1-.13-.13.71.71,0,0,0-.75-.67h-.08a.73.73,0,0,0-.69.73,4.79,4.79,0,0,0,0,1c.08.4.35.54.82.52a.63.63,0,0,0,.67-.57c0-.14.09-.18.22-.17h.86c.14,0,.18,0,.17.18A1.54,1.54,0,0,1,18,47.64a3.07,3.07,0,0,1-1.8-.08,1.57,1.57,0,0,1-1-1.12,3.05,3.05,0,0,1,.11-2,1.63,1.63,0,0,1,1.17-.93,3.41,3.41,0,0,1,1.49,0,1.63,1.63,0,0,1,1.3,1.54c0,.13,0,.19-.17.18h-.46Z" fill="#fff"/><path d="M42,39.1V37.23c0-.16,0-.21.2-.2h2a1.37,1.37,0,0,1,1.47,1.26,1.33,1.33,0,0,1-.07.56,1.22,1.22,0,0,1-1.2,1h-.9c-.15,0-.21.06-.2.21v1c0,.15-.05.21-.21.2H42.2c-.15,0-.2,0-.2-.19v-2Zm1.35-.66c0,.45,0,.45.45.45h.08a.38.38,0,0,0,.44-.44c0-.3-.11-.43-.44-.43h-.11c-.47.08-.41,0-.42.46Z" fill="#fff"/><path d="M3.08,37.1H4.89c.17,0,.24,0,.23.23s0,.44,0,.67,0,.16-.17.16H4c-.17,0-.23,0-.22.22V41c0,.23,0,.24-.24.24H2.6c-.16,0-.22,0-.22-.23V38.38c0-.17,0-.23-.22-.23h-1C1,38.15,1,38.15,1,38v-.71c0-.24.06-.18.19-.18Z" fill="#fff"/><path d="M35.45,23.59A1.62,1.62,0,0,1,37,22a1.59,1.59,0,0,1,1.65,1.53v.05a1.62,1.62,0,0,1-3.22.23A1.48,1.48,0,0,1,35.45,23.59Z" fill="#fff"/><path d="M24.38,45.62V43.76c0-.2.06-.25.25-.24h.85c.28,0,.25,0,.25.24v2.6c0,.28,0,.28.28.28h1.66c.18,0,.24.06.23.24s0,.44,0,.67,0,.15-.15.15h-3.2c-.15,0-.16-.08-.16-.19Z" fill="#fff"/><path d="M28.44,45.62V43.75c0-.17,0-.24.22-.23h.91c.3,0,.23,0,.23.22V46.4c0,.19.06.25.24.24h1.71c.16,0,.23,0,.22.21s0,.46,0,.68,0,.17-.16.17H28.62c-.14,0-.17-.06-.17-.18Z" fill="#fff"/><path d="M29.74,10.33a1.62,1.62,0,0,1,1.39-1.54h.36a.62.62,0,0,1,.59.31c.23.43.48.85.74,1.26a.69.69,0,0,1,0,.73,1.58,1.58,0,0,1-1.36.93,1.61,1.61,0,0,1-1.67-1.33Z" fill="#fff"/><path d="M41,39.19V41c0,.17,0,.24-.23.24h-.93c-.13,0-.19,0-.19-.18v-3.8c0-.14,0-.19.18-.19h.93c.17,0,.23.06.23.23C41,37.94,41,38.57,41,39.19Z" fill="#fff"/><path d="M27,22.18a1.35,1.35,0,0,1,1.3,1.34A1.29,1.29,0,0,1,27,24.82h-.08a1.32,1.32,0,0,1-1.33-1.31v-.05A1.33,1.33,0,0,1,27,22.18Z" fill="#fff"/><path d="M13.49,17.87a1.4,1.4,0,0,1,1.4,1.32,1.37,1.37,0,0,1-1.39,1.35h0a1.31,1.31,0,0,1-1.25-1.32A1.33,1.33,0,0,1,13.49,17.87Z" fill="#fff"/><path d="M23,34.15a.87.87,0,0,1,.82-.92h0a.92.92,0,0,1,.9.91,1,1,0,0,1-.88,1A.93.93,0,0,1,23,34.15Z" fill="#fff"/><path d="M12.39,34.1a.83.83,0,0,1,.57-.86.78.78,0,0,1,.6.06c.36.16.41.51.53.82-.12.17-.05.39-.22.55a1,1,0,0,1-.64.37.86.86,0,0,1-.84-.88Z" fill="#fff"/></svg>