<svg id="Layer_1" data-name="Layer 1" xmlns="http://www.w3.org/2000/svg" width="37.85" height="38.16" viewBox="0 0 37.85 38.16"><path d="M24.69,5.88a6.78,6.78,0,0,0-.9.3A2.38,2.38,0,0,0,22.6,7.45,2.52,2.52,0,0,0,22.46,9a3.94,3.94,0,0,0,.34.72,2,2,0,0,0,.74.74.26.26,0,0,1,.12.31,8.34,8.34,0,0,1-.14,1.2c-.06.41-.1.71-.15,1.07s-.05.46-.09.69a1.91,1.91,0,0,1-.06.33L19,6.85c-.31.44-.62.89-.91,1.33a.11.11,0,0,0,0,.11c.44.79.88,1.52,1.32,2.28.35.59.71,1.19,1.06,1.8l1.2,2.07,1.08,1.84.8,1.38c.15.25.3.49.44.75a1,1,0,0,1,.11.23,5,5,0,0,1-.56-.11c-.06,0-.12-.13-.14-.22a2,2,0,0,0-.58-1,4,4,0,0,0-.71-.44,1.35,1.35,0,0,0-.79-.15,2,2,0,0,0-1.28.46,1.85,1.85,0,0,0-.7,1.31,1.87,1.87,0,0,0,.74,1.78,2,2,0,0,0,2.1.32,2,2,0,0,0,1.06-.93.13.13,0,0,1,.17-.1h0l1.32.28a.24.24,0,0,1,.17.14c.43.71.85,1.42,1.27,2.15l1.31,2.26L29.11,27c.26.43.5.86.76,1.31H20.56l.18-.37a1.63,1.63,0,0,0,.15-.72.74.74,0,0,1,0-.21,1.09,1.09,0,0,0-.1-.5,1.8,1.8,0,0,0-.16-.38,2.35,2.35,0,0,0-.36-.47,1.39,1.39,0,0,0-.62-.36,1.8,1.8,0,0,1-.51-.17h-.22a1.63,1.63,0,0,0-.3.07l-.57.24a1.43,1.43,0,0,0-.35.3,1.78,1.78,0,0,0-.5,1.1c0,.12-.1.26-.07.36.12.36.09.79.42,1.11H17.2a.06.06,0,0,1-.06-.06h0l-.93-1.59-1.15-1.89-.85-1.53-1-1.77-1-1.64a.24.24,0,0,1,0-.26c.57-.89,1.12-1.79,1.68-2.68.36-.59.73-1.18,1.11-1.78l5.45,9.5,1-.59c-.21-.35-.4-.71-.6-1.06l-.66-1.14c-.3-.53-.6-1.05-.9-1.6L18.56,19l-1-1.71-.89-1.54c-.29-.51-.57-1-.87-1.51L15.1,13l-.9-1.6c-.25-.43-.5-.86-.74-1.29-.37-.65-.79-1.31-1.12-2a.26.26,0,0,1,0-.21c.33-.56.65-1.12,1-1.68l1.12-2,1.16-2c.38-.65.8-1.29,1.14-2A.43.43,0,0,1,17.21,0h3.84a.29.29,0,0,1,.3.16c.38.68.8,1.34,1.17,2,.29.5.57,1,.87,1.51l1.11,1.9A.8.8,0,0,1,24.69,5.88Z" transform="translate(0 0.04)"/><path d="M15.75,28.43H13.38a.36.36,0,0,1-.29-.13c-.22-.24-.44-.48-.65-.73a.4.4,0,0,1-.09-.21,1,1,0,0,1,0-.25,1.46,1.46,0,0,0-.17-.68,2.16,2.16,0,0,0-.41-.62,1.26,1.26,0,0,0-.63-.41c-.19,0-.35-.13-.53-.16a1,1,0,0,0-.34,0H10.2a.82.82,0,0,0-.5.15A1.72,1.72,0,0,0,9,26a1.9,1.9,0,0,0-.3.8h0L7.6,25.26l-.27.39L6,27.56a7,7,0,0,1-.5.71.23.23,0,0,1-.17.1H0L11.58,9a3.38,3.38,0,0,1,.24.41c.51.87,1,1.74,1.51,2.62l1,1.73a.17.17,0,0,1,0,.19l-.8,1.35-1.27,2.06c-.15.23-.29.46-.47.72a1.08,1.08,0,0,0-.07-.31,1,1,0,0,0-.06-.35.24.24,0,0,1,.13-.27,2.16,2.16,0,0,0,.84-1,2.06,2.06,0,0,0-.16-1.9,1.89,1.89,0,0,0-1.37-.92,1.93,1.93,0,0,0-1.7.49,1.82,1.82,0,0,0-.6,1.13,1.79,1.79,0,0,0,0,.86A2.11,2.11,0,0,0,9.46,17a2,2,0,0,0,.87.47c.06,0,.12.11.14.19l.39,1.86v.07c-.13.15,0,.27.06.38l1.3,2.28c.49.79,1,1.67,1.45,2.51l1.13,2,.91,1.59A.56.56,0,0,1,15.75,28.43Z" transform="translate(0 0.04)"/><path d="M31,27.22l-.31-.51-1.23-2.13-1.07-1.85c-.31-.53-.63-1.05-.94-1.59l-1-1.6-.86-1.46-1.15-2a.12.12,0,0,0-.08-.13.87.87,0,0,1-.08-.72c0-.21.06-.42.08-.63l.1-.79a7,7,0,0,1,.11-.8l.14-1.09c0-.26.07-.51.1-.8s0-.26.29-.3a3,3,0,0,0,1.36-.56L27,9.77c1.43,2.46,2.9,5,4.32,7.48L31,17a2.27,2.27,0,0,0-1.59-.6,2.17,2.17,0,0,0-1.42.38,2.13,2.13,0,0,0-.56.56,2.44,2.44,0,0,0-.34.61,2.31,2.31,0,0,0-.16,1.16,2.65,2.65,0,0,0,.44,1.18,2.48,2.48,0,0,0,1.12.88,2.22,2.22,0,0,0,1.08.18h.05c.35-.07.36,0,.54.31.55,1,1.11,2.07,1.65,3.11.18.33.34.65.5,1a.64.64,0,0,1-.27.8A4.1,4.1,0,0,1,31,27.22Z" transform="translate(0 0.04)"/><path d="M31.79,18l6.06,10.41h-6a.21.21,0,0,1-.23-.19h0a.47.47,0,0,1,.1-.1c.35-.2.72-.38,1.06-.6a1.7,1.7,0,0,0,.8-1,1.61,1.61,0,0,0-.12-1.14l-1.1-2.14c-.37-.71-.8-1.47-1.18-2.2-.12-.23-.12-.27.07-.45a2.2,2.2,0,0,0,.62-1.22,2.15,2.15,0,0,0,0-.8,4.51,4.51,0,0,1-.1-.53Z" transform="translate(0 0.04)"/><path d="M16.89,31.37v1.39c0,.14,0,.18-.17.18h-.67c-.1,0-.14,0-.14-.14v-3c0-.11,0-.15.15-.15h.6a.33.33,0,0,1,.3.15l1.15,1.35a.93.93,0,0,0,.14.14V29.78c0-.13,0-.18.18-.17h.65c.22,0,.15,0,.15.15v3c0,.11,0,.16-.15.15H18.4a.34.34,0,0,1-.19-.09L17,31.5Z" transform="translate(0 0.04)"/><path d="M15.18,31.27v1.48c0,.14,0,.19-.18.19a4.33,4.33,0,0,0-.72,0c-.15,0-.19-.06-.18-.19v-.89c0-.14,0-.2-.19-.2h-.8c-.14,0-.17.06-.17.18v.9c0,.16-.06.2-.19.2H12c-.11,0-.15,0-.15-.15v-3c0-.11,0-.14.15-.14h.79c.11,0,.16,0,.16.15v.89c0,.13,0,.18.17.17H14c.14,0,.19,0,.19-.17v-.86c0-.13,0-.19.17-.18h.73c.24,0,.17,0,.17.16A14,14,0,0,0,15.18,31.27Z" transform="translate(0 0.04)"/><path d="M27.46,31.26V29.78c0-.13,0-.17.16-.17h.75c.24,0,.17,0,.17.17v.89c0,.11,0,.15.16.15h.87c.12,0,.17,0,.17-.15v-.9c0-.12,0-.16.16-.16h.75c.11,0,.15,0,.15.15v3c0,.1,0,.14-.14.14h-.8c-.09,0-.13,0-.13-.14v-1c0-.12,0-.17-.16-.17h-.88c-.12,0-.16.06-.16.17v.93c0,.12,0,.18-.16.17h-.79c-.12,0-.15,0-.15-.16Z" transform="translate(0 0.04)"/><path d="M21.67,29.51a5.54,5.54,0,0,1,.8.21,1.25,1.25,0,0,1,.79.91,2.25,2.25,0,0,1,0,1.36,1.36,1.36,0,0,1-1,.91,2.43,2.43,0,0,1-1.31,0,1.42,1.42,0,0,1-1.18-1.29,2.23,2.23,0,0,1,.13-1.17,1.46,1.46,0,0,1,1.17-.83A4.17,4.17,0,0,1,21.67,29.51Zm.65,1.76a1,1,0,0,0,0-.41.61.61,0,0,0-.61-.51.65.65,0,0,0-.71.41,1.7,1.7,0,0,0,0,1,.65.65,0,0,0,.72.43.64.64,0,0,0,.6-.51A1.13,1.13,0,0,1,22.32,31.27Z" transform="translate(0 0.04)"/><path d="M15.87,36.38V34.9c0-.14.05-.19.18-.18H18.6c.13,0,.19,0,.18.18a3.53,3.53,0,0,0,0,.46c0,.12,0,.16-.17.16H17.13c-.14,0-.18,0-.18.18,0,.34,0,.3.31.3h1.09c.12,0,.16,0,.15.15s0,.31,0,.46,0,.14-.14.14H17.12c-.13,0-.17,0-.17.18s0,.33.34.33h1.35c.12,0,.16,0,.16.16V38a.11.11,0,0,1-.09.13H16c-.12,0-.12-.07-.12-.15Z" transform="translate(0 0.04)"/><path d="M4.56,31.25v-1.5c0-.12,0-.17.15-.16H7.27c.13,0,.18,0,.17.17a3.69,3.69,0,0,0,0,.47c0,.12,0,.16-.17.16H5.81c-.19,0-.19,0-.19.2s0,.28.28.28H7c.12,0,.17,0,.16.16v.46c0,.12,0,.16-.15.16H5.8c-.14,0-.19,0-.18.18s0,.31.32.31H7.3c.13,0,.18,0,.17.18s0,.33,0,.5,0,.12-.13.12H4.65c-.12,0-.13-.06-.13-.16Z" transform="translate(0 0.04)"/><path d="M26.36,30.63h-.25c-.14,0-.26,0-.3-.18s-.39-.24-.59-.16-.24.06-.24.2.13.2.24.23c.32.09.65.15,1,.24a1,1,0,0,1,.59.37,1,1,0,0,1-.26,1.39h0a1.61,1.61,0,0,1-.93.25,2.48,2.48,0,0,1-1.23-.2,1,1,0,0,1-.52-.8c0-.1,0-.13.13-.13h.75c.08,0,.12,0,.14.11a.31.31,0,0,0,.33.29h.44a.2.2,0,0,0,.05-.4c-.23-.06-.46-.1-.69-.17a3.38,3.38,0,0,1-.69-.26,1,1,0,0,1-.27-1.32.87.87,0,0,1,.27-.27,2.3,2.3,0,0,1,2.15.05.94.94,0,0,1,.38.65c0,.1,0,.14-.12.14Z" transform="translate(0 0.04)"/><path d="M10.23,31v-.14a.5.5,0,0,0-.38-.44.61.61,0,0,0-.67.18.58.58,0,0,0-.12.25,2.41,2.41,0,0,0,0,1,.54.54,0,0,0,.57.39c.32,0,.53-.13.58-.4s.11-.23.28-.21h.59c.13,0,.17,0,.15.16a1.24,1.24,0,0,1-1,1.18,2.81,2.81,0,0,1-1.29,0,1.42,1.42,0,0,1-1-1.24A2.75,2.75,0,0,1,8,30.62a1.29,1.29,0,0,1,.79-.89,2.18,2.18,0,0,1,1.7,0,1.29,1.29,0,0,1,.8,1.16s0,.1-.07.1C10.89,31,10.57,31,10.23,31Z" transform="translate(0 0.04)"/><path d="M14.78,36.11h-.41s-.1-.07-.1-.11a.57.57,0,0,0-.6-.53h-.06a.57.57,0,0,0-.55.58,3.57,3.57,0,0,0,0,.8c.06.31.28.43.65.41a.51.51,0,0,0,.54-.45c0-.12.07-.15.17-.14h.69c.11,0,.14,0,.13.14a1.24,1.24,0,0,1-1,1.19,2.53,2.53,0,0,1-1.39,0,1.28,1.28,0,0,1-.8-.89,2.44,2.44,0,0,1,.09-1.6,1.3,1.3,0,0,1,.93-.74,2.66,2.66,0,0,1,1.19,0,1.31,1.31,0,0,1,1,1.23c0,.1,0,.15-.14.14h-.34Z" transform="translate(0 0.04)"/><path d="M33.46,31.21V29.72c0-.13,0-.17.16-.16h1.64a1.09,1.09,0,0,1,1.17,1,1.14,1.14,0,0,1-.06.45,1,1,0,0,1-.95.79H34.7c-.12,0-.17,0-.16.17v.8c0,.12,0,.17-.17.16h-.75c-.12,0-.16,0-.16-.15Zm1.08-.53c0,.36,0,.36.36.36H35a.3.3,0,0,0,.35-.24.21.21,0,0,0,0-.11c0-.24-.09-.34-.35-.34h-.09c-.37.06-.32,0-.33.36Z" transform="translate(0 0.04)"/><path d="M2.46,29.61H3.91c.13,0,.19,0,.18.19s0,.35,0,.53,0,.13-.14.13H3.16c-.14,0-.19,0-.18.17v2.12c0,.19,0,.19-.19.19H2.08c-.13,0-.17,0-.17-.18V30.63c0-.13,0-.18-.18-.18H.93c-.1,0-.14,0-.14-.14v-.56c0-.19,0-.14.15-.14Z" transform="translate(0 0.04)"/><path d="M28.2,18.85a1.31,1.31,0,0,1,1.26-1.28,1.28,1.28,0,0,1,1.32,1.22h0a1.29,1.29,0,0,1-2.57.19A.57.57,0,0,1,28.2,18.85Z" transform="translate(0 0.04)"/><path d="M19.38,36.4V35c0-.16,0-.2.2-.19h.68c.22,0,.2,0,.2.19v2c0,.22,0,.22.22.22H22c.14,0,.19,0,.18.2s0,.35,0,.53,0,.12-.12.12H19.52c-.12,0-.13-.06-.13-.15Z" transform="translate(0 0.04)"/><path d="M22.62,36.4V35c0-.13,0-.19.17-.18h.73c.24,0,.18,0,.18.17v2.12c0,.15,0,.2.19.19h1.37c.12,0,.18,0,.17.17s0,.37,0,.54,0,.14-.13.14H22.76c-.11,0-.13,0-.13-.14Z" transform="translate(0 0.04)"/><path d="M23.66,8.28a1.28,1.28,0,0,1,1.1-1.22h.29a.5.5,0,0,1,.47.24,11,11,0,0,0,.59,1,.55.55,0,0,1,0,.58,1.28,1.28,0,0,1-2.42-.32Z" transform="translate(0 0.04)"/><path d="M32.65,31.28v1.46c0,.14,0,.2-.18.2h-.74c-.11,0-.16,0-.16-.15v-3c0-.11,0-.15.15-.15h.74c.13,0,.18.05.18.19C32.65,30.28,32.65,30.78,32.65,31.28Z" transform="translate(0 0.04)"/><path d="M21.46,17.73a1.07,1.07,0,0,1,1,1.06,1,1,0,0,1-1,1h-.07a1,1,0,0,1-1.06-.94v-.06h0a1,1,0,0,1,1-1h.11Z" transform="translate(0 0.04)"/><path d="M10.71,14.29a1.11,1.11,0,0,1,1.11,1.05,1.09,1.09,0,0,1-1.1,1.08h0a1.05,1.05,0,0,1-1-1.05A1.07,1.07,0,0,1,10.71,14.29Z" transform="translate(0 0.04)"/><path d="M18.31,27.26a.69.69,0,0,1,.65-.73h0a.75.75,0,0,1,.72.73A.81.81,0,0,1,19,28,.74.74,0,0,1,18.31,27.26Z" transform="translate(0 0.04)"/><path d="M9.83,27.22a.66.66,0,0,1,.46-.68.55.55,0,0,1,.47.05c.29.12.33.4.43.65-.1.13,0,.31-.18.44a.84.84,0,0,1-.55.28.67.67,0,0,1-.67-.69h0Z" transform="translate(0 0.04)"/></svg>